<svg xmlns="http://www.w3.org/2000/svg" width="30" height="30" viewBox="0 0 30 30"><g fill="#5E5F6A"><path d="M10 11.886h8.21c.414 0 .75-.335.75-.75 0-.414-.336-.75-.75-.75H10c-.414 0-.75.336-.75.75 0 .415.336.75.75.75zm0 3.694h5.456c.414 0 .75-.336.75-.75 0-.415-.336-.75-.75-.75H10c-.414 0-.75.335-.75.75 0 .414.336.75.75.75z"/><path d="M12.273 21.23h8.182c2.924 0 5.295-2.37 5.295-5.294v-6.39c0-2.925-2.37-5.296-5.295-5.296H9.545C6.62 4.25 4.25 6.62 4.25 9.545v13.88c0 .916.743 1.66 1.66 1.66.49 0 .958-.22 1.274-.598l2.938-3.526c.265-.314.222-.79-.096-1.052-.32-.265-.792-.222-1.057.096L6.03 23.53c-.03.035-.075.056-.12.056-.09 0-.16-.07-.16-.16V9.546c0-2.096 1.7-3.795 3.794-3.795h10.91c2.096 0 3.795 1.7 3.795 3.798v6.39c0 2.097-1.7 3.796-3.798 3.796H12.27c-.413 0-.75.337-.75.75 0 .415.337.75.75.75z"/></g></svg>
