<svg width="30" height="30" xmlns="http://www.w3.org/2000/svg" xmlns:xlink="http://www.w3.org/1999/xlink"><defs><path d="M13.606 21.431c-.47-.079-1.198-.117-1.614-.293-1.017-.43-2.164-4.76-2.527-6.119C7.967 9.41 11.841 2.26 15.521 2.254c3.681-.006 7.202 7.748 5.852 12.746-.365 1.35-1.43 5.686-2.538 6.127a7.077 7.077 0 0 1-1.65.419l-3.579-.115z" id="a"/></defs><g transform="translate(2.929 1)" fill="none" fill-rule="evenodd"><path d="M7.914 18.173c-.321-.353-.87-.83-1.087-1.227-.53-.971 1.3-5.162 1.872-6.48 2.361-5.439 9.926-8.819 12.83-6.564 2.905 2.254.784 10.66-3.435 13.858-1.14.863-4.717 3.702-5.868 3.377a6.946 6.946 0 0 1-1.564-.675l-2.748-2.29z"/><path d="M4.084 26.024c-.747-.582.476-4.406 1.652-5.186.603-.4 1.337-.004 2.009.516.638.494 1.236 1.083.977 1.808-.534 1.49-3.89 3.444-4.638 2.862z" stroke="#FFA400" fill="#FFA400"/><path d="M17.737 18.15c-.8.672-1.515 1.204-2.147 1.597-.627.389-1.53.807-2.707 1.253l-.18.068.384 3.712a1.25 1.25 0 0 0 1.68 1.042c2.71-1.01 4.252-2.239 4.596-3.714.244-1.042.164-1.958-.246-2.737-.166-.316-.515-.716-1.05-1.213l-.161-.15-.17.142z" stroke="#FFA400" stroke-width=".5" fill="#FFA400" stroke-linecap="round" stroke-linejoin="round"/><path d="M8.142 11.477c-1.312-.991-2.67-1.076-4.071-.254-1.223.717-1.934 2.473-2.133 5.268a1 1 0 0 0 1.19 1.052l3.524-.694c.07-1.02.215-1.926.434-2.719.22-.792.572-1.677 1.056-2.653z" stroke="#FFA400" stroke-width="1.5" fill="#FFA400" stroke-linecap="round" stroke-linejoin="round"/><g stroke-linecap="round" stroke-linejoin="round" transform="rotate(38 15.401 11.9)" stroke-width="1.5"><use stroke="#FFA400" fill="#FFA400" xlink:href="#a"/><path stroke="#FFF" d="M13.482 22.17a7.898 7.898 0 0 0-.326-.045 36.218 36.218 0 0 1-.391-.049c-.467-.062-.785-.129-1.065-.247-.286-.12-.524-.34-.748-.643-.458-.617-.902-1.659-1.362-3.058a49.098 49.098 0 0 1-.85-2.915c-1.556-5.83 2.37-13.701 6.78-13.709 4.264-.007 8.043 8.261 6.577 13.692.01-.038-.236.888-.33 1.233-.168.609-.329 1.159-.497 1.683-.683 2.13-1.293 3.368-2.157 3.712a7.802 7.802 0 0 1-1.825.465l-.127.006-3.579-.114-.1-.01z"/></g><ellipse stroke="#FFF" stroke-width=".5" fill="#FFF" transform="rotate(38 16.834 9.925)" cx="16.834" cy="9.925" rx="2.237" ry="2.228"/></g></svg>