<svg xmlns="http://www.w3.org/2000/svg" width="30" height="30" viewBox="0 0 30 30"><path d="M16.87 6.144H9.563c-2.932 0-5.315 2.336-5.315 5.224v6.29c0 2.888 2.382 5.223 5.314 5.223H20.52c2.933 0 5.316-2.33 5.316-5.22v-1.81c0-.413-.336-.75-.75-.75s-.75.337-.75.75v1.817c0 2.053-1.705 3.723-3.815 3.723H9.57c-2.11 0-3.815-1.67-3.815-3.723v-6.29c0-2.052 1.705-3.723 3.815-3.723h7.305c.412 0 .75-.334.75-.75 0-.413-.338-.75-.75-.75z"/><path d="M13.918 17.005C15.63 12.53 19 10.33 24.174 10.33c.414 0 .75-.337.75-.75 0-.415-.336-.75-.75-.75-5.782 0-9.717 2.57-11.657 7.64-.148.386.045.82.432.967.38.148.82-.045.96-.432z"/><path d="M24.396 9.54l-2.458 3.382c-.244.335-.17.804.166 1.048.335.243.804.17 1.047-.166l2.9-3.99c.25-.335.17-.804-.16-1.047L21.82 5.81c-.337-.25-.806-.17-1.05.16-.243.335-.17.804.166 1.05L24.4 9.535z"/></svg>