<svg width="30" height="30" xmlns="http://www.w3.org/2000/svg"><g fill="none" fill-rule="evenodd"><path fill="none" d="M1-1h30v30H1z"/><path d="M11.076 17.303c-.287-.317-.778-.745-.972-1.1-.474-.872 1.162-4.632 1.673-5.814C13.89 5.51 20.653 2.478 23.25 4.5c2.597 2.023.701 9.564-3.071 12.432-1.019.774-4.218 3.321-5.247 3.03a6.2 6.2 0 0 1-1.398-.606l-2.457-2.053z" fill="#FFF"/><g stroke="#5E5F6A" stroke-width="1.5" transform="translate(4 1)"><path d="M7.26 16.422c-.29-.316-.78-.744-.977-1.098-.48-.867 1.095-4.56 1.588-5.722 2.033-4.794 8.697-7.708 11.294-5.679 2.596 2.029.809 9.454-2.894 12.242-1 .753-4.138 3.23-5.16 2.93a6.317 6.317 0 0 1-1.393-.616" stroke-linecap="round" stroke-linejoin="round"/><path d="M3.652 23.346c-.668-.522.425-3.953 1.477-4.653.54-.358 1.195-.003 1.796.464.57.443 1.105.97.873 1.622-.477 1.336-3.478 3.089-4.146 2.567z" fill="#FFF"/><path d="M7.28 10.296c-1.173-.89-2.387-.966-3.64-.228-1.073.63-1.705 2.158-1.896 4.583a1 1 0 0 0 1.19 1.06l3.013-.596c.063-.915.193-1.728.389-2.439.196-.71.51-1.504.944-2.38zM16.002 16.454c1.057.808 1.421 1.917 1.093 3.328-.28 1.208-1.558 2.248-3.832 3.12a1 1 0 0 1-1.353-.83l-.313-3.024c1.065-.404 1.885-.785 2.46-1.143s1.223-.842 1.945-1.45z" fill="#FFF" stroke-linecap="round" stroke-linejoin="round"/><ellipse transform="rotate(38 15.051 8.904)" cx="15.051" cy="8.904" rx="2.003" ry="1.997"/></g></g></svg>